<svg width="70" height="70" viewBox="0 0 70 70" fill="none" xmlns="http://www.w3.org/2000/svg">
<path d="M65.992 33.7838L67.4885 37.398H67.5062L68.9673 33.7838H70L66.8497 41.0384H65.8697L67.0423 38.5006L64.9682 33.7838H65.992ZM62.5967 33.6175C63.2967 33.6175 63.8479 33.8013 64.2505 34.1776C64.6532 34.5539 64.8544 35.0615 64.8544 35.7178V38.8244H63.9529V38.1243H63.9094C63.5155 38.7019 62.999 38.9907 62.3514 38.9907C61.8002 38.9907 61.3364 38.8244 60.9602 38.5006C60.5837 38.1681 60.3999 37.7568 60.3999 37.2667C60.3999 36.7504 60.5925 36.3304 60.9952 36.0241C61.389 35.7178 61.914 35.5603 62.5702 35.5603C63.1302 35.5603 63.594 35.6653 63.9617 35.8666V35.6478C63.9617 35.3152 63.8305 35.044 63.5679 34.8077C63.3055 34.5801 62.999 34.4664 62.649 34.4664C62.124 34.4664 61.704 34.6852 61.3976 35.1315L60.5664 34.6064C61.0214 33.9501 61.704 33.6175 62.5967 33.6175ZM57.8184 31.4561C58.4572 31.4561 58.9999 31.6661 59.4461 32.0949C59.9011 32.5237 60.1199 33.04 60.1199 33.6438C60.1199 34.2651 59.8922 34.7902 59.4461 35.2015C59.0084 35.6216 58.4661 35.8316 57.8184 35.8316H56.2607V38.8157H55.3154V31.4561H57.8184ZM62.719 36.3041C62.334 36.3041 62.019 36.4004 61.7564 36.5841C61.5026 36.7767 61.3714 37.0042 61.3714 37.2755C61.3714 37.5205 61.4764 37.7305 61.6864 37.888C61.8964 38.0543 62.1414 38.1331 62.4214 38.1331C62.8152 38.1331 63.174 37.9843 63.489 37.6955C63.804 37.398 63.9529 37.0567 63.9529 36.6542C63.6555 36.4179 63.244 36.3041 62.719 36.3041ZM57.8446 32.3749H56.2607V34.939H57.8446C58.2211 34.939 58.5361 34.8165 58.7811 34.5627C59.0349 34.3089 59.1572 34.0114 59.1572 33.6613C59.1572 33.32 59.0349 33.0225 58.7811 32.7687C58.5361 32.5062 58.2211 32.3749 57.8446 32.3749Z" fill="#5F6368"/>
<path d="M41.9612 33.6267C42.6 33.6267 43.1077 33.9068 43.3703 34.2218H43.4138V33.7843H44.5342V38.5973C44.5342 40.575 43.3703 41.3889 41.9877 41.3889C40.6924 41.3889 39.9135 40.5138 39.6159 39.805L40.64 39.3761C40.8235 39.8137 41.27 40.33 41.9877 40.33C42.8715 40.33 43.4138 39.7787 43.4138 38.7549V38.3698H43.3703C43.1077 38.6936 42.6 38.9824 41.9612 38.9824C40.6224 38.9824 39.3974 37.8185 39.3974 36.3133C39.3974 34.7994 40.6224 33.6267 41.9612 33.6267ZM49.6625 33.6355C51.0539 33.6355 51.7278 34.7381 51.9551 35.3419L52.0778 35.6482L48.4986 37.1272C48.7698 37.661 49.1986 37.941 49.7936 37.941C50.3889 37.9235 50.8089 37.6347 51.1151 37.1884L52.0251 37.801C51.7278 38.2386 51.0189 38.9911 49.7936 38.9911C48.271 38.9911 47.1421 37.8185 47.1421 36.3133C47.1421 34.7206 48.2886 33.6355 49.6625 33.6355ZM23.4621 30.6689C24.731 30.6689 25.6324 31.1678 26.3062 31.8153L25.5011 32.6204C25.0111 32.1654 24.3547 31.8066 23.4534 31.8066C21.7819 31.8066 20.4693 33.1543 20.4693 34.8257C20.4693 36.4971 21.7732 37.8448 23.4534 37.8448C24.5385 37.8448 25.1598 37.4073 25.5536 37.0135C25.8774 36.6897 26.0875 36.2259 26.175 35.587H23.4271V34.4494H27.2776C27.3214 34.6507 27.3389 34.8957 27.3389 35.1582C27.3389 36.0071 27.1026 37.066 26.3587 37.8186C25.6236 38.5799 24.696 38.9824 23.4621 38.9824C21.1694 38.9824 19.2441 37.1185 19.2441 34.8257C19.2441 32.5329 21.1694 30.6689 23.4621 30.6689ZM30.4196 33.6267C31.8985 33.6267 33.1062 34.7556 33.1062 36.3045C33.1062 37.8447 31.8985 38.9824 30.4196 38.9824C28.9407 38.9824 27.733 37.8447 27.733 36.3045C27.733 34.7556 28.9407 33.6267 30.4196 33.6267ZM36.265 33.6267C37.7438 33.6267 38.9515 34.7556 38.9515 36.3045C38.9515 37.8447 37.7438 38.9824 36.265 38.9824C34.7859 38.9824 33.5782 37.8447 33.5782 36.3045C33.5782 34.7556 34.7859 33.6267 36.265 33.6267ZM46.556 30.949V38.8162H45.3833V30.949H46.556ZM30.4283 34.6856C29.6232 34.6856 28.9232 35.3419 28.9232 36.3045C28.9232 37.2584 29.6232 37.9235 30.4283 37.9235C31.2334 37.9235 31.9335 37.2584 31.9335 36.3045C31.9335 35.3419 31.2334 34.6856 30.4283 34.6856ZM36.265 34.6856C35.4597 34.6856 34.7597 35.3419 34.7597 36.3045C34.7597 37.2584 35.4597 37.9235 36.265 37.9235C37.07 37.9235 37.77 37.2584 37.77 36.3045C37.77 35.3419 37.07 34.6856 36.265 34.6856ZM42.075 34.6768C41.2612 34.6768 40.5874 35.3682 40.5874 36.3133C40.5874 37.2497 41.27 37.9235 42.075 37.9235C42.8715 37.9235 43.5015 37.2497 43.5015 36.3133C43.5015 35.3682 42.8715 34.6768 42.075 34.6768ZM49.6974 34.6594C49.1024 34.6594 48.271 35.1932 48.306 36.2258L50.6951 35.2282C50.5639 34.8956 50.1701 34.6594 49.6974 34.6594Z" fill="#5F6368"/>
<path d="M13.038 31.0756C11.622 30.2582 9.81147 30.7439 8.99323 32.1598L6.93062 35.7329C6.33379 36.7647 7.10212 37.1252 7.95887 37.6389L9.94359 38.7844C10.6157 39.1721 11.4742 38.9419 11.8618 38.2707L13.9822 34.5987C14.6945 33.3649 14.2719 31.7879 13.038 31.0756Z" fill="#EA4335"/>
<path d="M10.704 32.5543L8.71928 31.4088C7.62366 30.8006 7.00321 30.7603 6.55338 31.4753L3.62618 36.5448C2.80882 37.9598 3.29539 39.7695 4.71043 40.5851C5.94432 41.2975 7.52127 40.8748 8.2336 39.6409L11.2168 34.4734C11.6062 33.8013 11.3761 32.942 10.704 32.5543Z" fill="#FBBC04"/>
<path d="M11.086 29.9485L9.692 29.1434C8.15007 28.2534 6.17847 28.7811 5.28849 30.323L2.63429 34.9199C2.24224 35.5981 2.47502 36.4662 3.15324 36.8574L4.71443 37.7588C5.48538 38.2042 6.47074 37.9399 6.91618 37.1689L9.94841 31.9175C10.5767 30.8297 11.9673 30.4569 13.055 31.0852L11.086 29.9485Z" fill="#34A853"/>
<path d="M5.66555 31.6381L4.15862 30.77C3.48653 30.3832 2.62807 30.6125 2.24039 31.2828L0.43243 34.4069C-0.457554 35.9445 0.070135 37.9117 1.61207 38.7991L2.75933 39.4598L4.15074 40.2614L4.75457 40.6088C3.68256 39.8912 3.34215 38.4534 3.99759 37.321L4.46577 36.5124L6.18011 33.5502C6.56691 32.8816 6.33676 32.0249 5.66555 31.6381Z" fill="#4285F4"/>
</svg>
