<svg width="70" height="65" viewBox="0 0 70 65" fill="none" xmlns="http://www.w3.org/2000/svg">
<path d="M34.6595 22.1336L29.9829 42.2538H24.3262L29.0033 22.1336H34.6595ZM58.4565 35.1254L61.4336 27.5699L63.1469 35.1254H58.4565ZM64.7697 42.2538H70L65.4306 22.1336H60.606C59.5187 22.1336 58.6021 22.7137 58.1964 23.6084L49.7092 42.2538H55.6496L56.8288 39.2489H64.0847L64.7697 42.2538ZM50.0037 35.6852C50.0283 30.3752 42.027 30.081 42.0806 27.7084C42.0978 26.9875 42.8452 26.2195 44.4788 26.0231C45.2888 25.9272 47.5238 25.8493 50.0573 26.9237L51.0482 22.6553C49.6875 22.2024 47.9364 21.7661 45.7574 21.7661C40.1657 21.7661 36.2321 24.4994 36.2006 28.4166C36.1647 31.3133 39.0105 32.9284 41.1501 33.8932C43.3562 34.8793 44.0953 35.5114 44.0845 36.3925C44.0692 37.7424 42.3254 38.3402 40.7017 38.3629C37.8564 38.4036 36.207 37.6551 34.8926 37.0912L33.8658 41.5021C35.1896 42.0596 37.6287 42.5448 40.1543 42.5696C46.0992 42.5696 49.986 39.8685 50.0037 35.6852ZM26.577 22.1336L17.4121 42.2538H11.4338L6.92343 26.1964C6.65002 25.209 6.41152 24.8461 5.57996 24.4288C4.21976 23.7491 1.9744 23.1133 0 22.7178L0.133759 22.1336H9.75841C10.9844 22.1336 12.0874 22.8843 12.3682 24.184L14.7507 35.8278L20.6346 22.1336H26.577Z" fill="#1434CB"/>
</svg>
