<svg width="70" height="70" viewBox="0 0 70 70" fill="none" xmlns="http://www.w3.org/2000/svg">
<path d="M12.7903 24.35C11.9699 25.3208 10.6573 26.0866 9.34461 25.9772C9.18053 24.6645 9.82318 23.2698 10.5752 22.4084C11.3956 21.4102 12.8313 20.6992 13.9936 20.6445C14.1303 22.0119 13.5971 23.3519 12.7903 24.35ZM13.9799 26.237C12.0793 26.1276 10.4522 27.3172 9.54972 27.3172C8.6336 27.3172 7.25258 26.2917 5.7485 26.319C3.7932 26.3464 1.97463 27.4539 0.976468 29.2178C-1.07455 32.7455 0.443204 37.9688 2.42585 40.8402C3.39667 42.2622 4.55891 43.821 6.09033 43.7663C7.53972 43.7116 8.114 42.8229 9.8642 42.8229C11.6281 42.8229 12.134 43.7663 13.6654 43.739C15.2515 43.7116 16.2497 42.3169 17.2205 40.8949C18.3281 39.2814 18.7793 37.709 18.8066 37.6269C18.7793 37.5996 15.7438 36.4374 15.7164 32.937C15.6891 30.0108 18.1093 28.6161 18.2187 28.5341C16.8513 26.5104 14.7183 26.2917 13.9799 26.237ZM24.9597 22.2717V43.5886H28.2687V36.3006H32.8493C37.0333 36.3006 39.9731 33.4292 39.9731 29.2725C39.9731 25.1157 37.088 22.2717 32.9586 22.2717H24.9597ZM28.2687 25.0611H32.0835C34.955 25.0611 36.5958 26.5925 36.5958 29.2861C36.5958 31.9798 34.955 33.5249 32.0699 33.5249H28.2687V25.0611ZM46.0168 43.7526C48.0951 43.7526 50.0231 42.6998 50.8982 41.0316H50.9666V43.5886H54.0294V32.978C54.0294 29.9015 51.5682 27.9188 47.7807 27.9188C44.2666 27.9188 41.6686 29.9288 41.5729 32.6908H44.5537C44.7999 31.3782 46.0168 30.5168 47.6849 30.5168C49.7086 30.5168 50.8435 31.4602 50.8435 33.1968V34.3727L46.7141 34.6188C42.8719 34.8512 40.7935 36.4237 40.7935 39.1584C40.7935 41.9204 42.9403 43.7526 46.0168 43.7526ZM46.9056 41.2231C45.1417 41.2231 44.0205 40.3753 44.0205 39.0763C44.0205 37.7363 45.1007 36.9569 47.1654 36.8339L50.8435 36.6014V37.8047C50.8435 39.801 49.148 41.2231 46.9056 41.2231ZM58.1178 49.3861C61.3447 49.3861 62.8625 48.1555 64.1888 44.4226L70 28.1239H66.6363L62.7394 40.7171H62.671L58.7741 28.1239H55.3147L60.9208 43.6433L60.62 44.5867C60.1141 46.1865 59.2937 46.8018 57.8306 46.8018C57.5708 46.8018 57.0649 46.7745 56.8598 46.7471V49.3041C57.0513 49.3588 57.8717 49.3861 58.1178 49.3861Z" fill="black"/>
</svg>
