<svg width="70" height="70" viewBox="0 0 70 70" fill="none" xmlns="http://www.w3.org/2000/svg">
<path d="M21.1626 61.9348V58.3346C21.1837 58.0318 21.14 57.728 21.0345 57.4434C20.9289 57.1588 20.7638 56.9 20.5504 56.6842C20.3369 56.4684 20.0798 56.3007 19.7964 56.1921C19.5129 56.0835 19.2095 56.0366 18.9065 56.0545C18.51 56.0287 18.1138 56.1097 17.7592 56.2891C17.4046 56.4686 17.1046 56.7398 16.8905 57.0746C16.6953 56.7497 16.4162 56.4836 16.0825 56.304C15.7488 56.1245 15.3729 56.0383 14.9943 56.0545C14.6643 56.0379 14.3357 56.1078 14.0411 56.2573C13.7464 56.4067 13.4959 56.6305 13.3143 56.9066V56.1985H12.0662V61.9348H13.3262V58.7547C13.299 58.5584 13.3155 58.3586 13.3747 58.1695C13.4338 57.9805 13.5341 57.8068 13.6684 57.6611C13.8026 57.5154 13.9675 57.4013 14.1511 57.3268C14.3347 57.2524 14.5325 57.2196 14.7303 57.2307C15.5583 57.2307 15.9784 57.7707 15.9784 58.7427V61.9348H17.2385V58.7547C17.2133 58.5588 17.2313 58.3598 17.2912 58.1716C17.3511 57.9834 17.4515 57.8107 17.5853 57.6654C17.7191 57.5202 17.8831 57.406 18.0658 57.3309C18.2484 57.2558 18.4453 57.2216 18.6426 57.2307C19.4945 57.2307 19.9026 57.7707 19.9026 58.7427V61.9348H21.1626ZM28.1951 59.0666V56.1985H26.9469V56.8945C26.7339 56.62 26.4582 56.4005 26.1429 56.2543C25.8277 56.1082 25.482 56.0397 25.1348 56.0545C24.3615 56.0924 23.6324 56.4263 23.0985 56.9871C22.5645 57.5478 22.2668 58.2924 22.2668 59.0667C22.2668 59.841 22.5645 60.5856 23.0985 61.1463C23.6324 61.7071 24.3615 62.041 25.1348 62.0789C25.482 62.0937 25.8277 62.0252 26.1429 61.879C26.4582 61.7329 26.7339 61.5133 26.9469 61.2388V61.9348H28.1951V59.0666ZM23.5508 59.0666C23.5702 58.7281 23.6882 58.4027 23.8903 58.1305C24.0924 57.8583 24.3698 57.6511 24.6882 57.5347C25.0066 57.4182 25.3521 57.3975 25.6822 57.475C26.0122 57.5526 26.3124 57.725 26.5456 57.9711C26.7788 58.2172 26.9349 58.5262 26.9946 58.8599C27.0543 59.1937 27.0151 59.5376 26.8816 59.8493C26.7482 60.161 26.5265 60.4268 26.2439 60.614C25.9612 60.8012 25.6299 60.9015 25.2908 60.9027C25.0532 60.9059 24.8175 60.8599 24.5986 60.7675C24.3796 60.675 24.1822 60.5383 24.0187 60.3658C23.8552 60.1933 23.7292 59.9888 23.6487 59.7652C23.5682 59.5416 23.5349 59.3037 23.5508 59.0666ZM54.9006 56.0478C55.3221 56.0437 55.7402 56.1221 56.1316 56.2784C56.4964 56.424 56.8291 56.6397 57.1108 56.9133C57.3882 57.1854 57.6081 57.5102 57.7578 57.8687C58.0694 58.6369 58.0694 59.4963 57.7578 60.2646C57.6082 60.6231 57.3882 60.9481 57.1108 61.2201C56.8291 61.4937 56.4964 61.7094 56.1316 61.8549C55.3398 62.1626 54.4615 62.1626 53.6697 61.8549C53.3055 61.7098 52.9736 61.4941 52.6933 61.2201C52.4175 60.9473 52.1987 60.6225 52.0494 60.2646C51.738 59.4963 51.738 58.637 52.0494 57.8687C52.1988 57.5108 52.4176 57.1861 52.6933 56.9133C52.9737 56.6394 53.3055 56.4236 53.6697 56.2784C54.061 56.1221 54.4792 56.0437 54.9006 56.0478ZM54.9006 57.2279C54.6565 57.2256 54.4144 57.2714 54.188 57.3626C53.9745 57.4483 53.7809 57.5766 53.6189 57.7399C53.4558 57.9067 53.3275 58.1042 53.2415 58.321C53.0578 58.8012 53.0578 59.3323 53.2415 59.8125C53.3275 60.0293 53.4558 60.2268 53.6189 60.3935C53.7809 60.5568 53.9745 60.6852 54.188 60.7709C54.6461 60.9506 55.1552 60.9506 55.6133 60.7709C55.8274 60.6848 56.022 60.5564 56.1854 60.3935C56.35 60.2274 56.4794 60.0298 56.5659 59.8125C56.7496 59.3323 56.7496 58.8012 56.5659 58.321C56.4794 58.1037 56.35 57.9061 56.1854 57.7399C56.0219 57.5771 55.8274 57.4488 55.6133 57.3626C55.3869 57.2714 55.1447 57.2256 54.9006 57.2279ZM34.9863 59.0666C34.9743 57.2786 33.8702 56.0545 32.2622 56.0545C31.4838 56.0953 30.7514 56.4361 30.2189 57.0052C29.6863 57.5744 29.3948 58.3277 29.4057 59.1071C29.4166 59.8865 29.7289 60.6314 30.2772 61.1855C30.8254 61.7395 31.5669 62.0597 32.3462 62.0789C33.2024 62.1089 34.0397 61.8227 34.6983 61.2748L34.0863 60.3507C33.6123 60.7305 33.0254 60.9416 32.4182 60.9507C32.0058 60.9854 31.5961 60.8583 31.2758 60.5962C30.9554 60.3342 30.7497 59.9578 30.702 59.5467H34.9623C34.9743 59.3907 34.9863 59.2347 34.9863 59.0666ZM30.7141 58.5626C30.736 58.1775 30.9077 57.8163 31.1925 57.5561C31.4773 57.296 31.8526 57.1576 32.2382 57.1706C32.6151 57.1633 32.9796 57.3057 33.2518 57.5666C33.524 57.8275 33.6817 58.1857 33.6903 58.5626H30.7141ZM40.2423 57.6627C39.6978 57.3494 39.0824 57.1801 38.4543 57.1706C37.7701 57.1706 37.3622 57.4226 37.3622 57.8427C37.3622 58.2267 37.7942 58.3346 38.3343 58.4066L38.9222 58.4906C40.1704 58.6706 40.9263 59.1986 40.9263 60.2067C40.9263 61.2988 39.9663 62.0789 38.3102 62.0789C37.4238 62.1034 36.553 61.8425 35.8261 61.3347L36.4141 60.3628C36.9648 60.7711 37.6369 60.9825 38.3223 60.9628C39.1742 60.9628 39.6303 60.7108 39.6303 60.2667C39.6303 59.9427 39.3062 59.7627 38.6223 59.6667L38.0342 59.5828C36.7502 59.4027 36.0542 58.8267 36.0542 57.8906C36.0542 56.7505 36.9901 56.0545 38.4422 56.0545C39.2637 56.0262 40.0759 56.2345 40.7824 56.6546L40.2423 57.6627ZM46.2393 57.3386H44.1993V59.9308C44.1993 60.5067 44.4033 60.8908 45.0273 60.8908C45.4168 60.8779 45.7967 60.7664 46.1314 60.5668L46.4913 61.6349C46.0234 61.9267 45.4827 62.0805 44.9313 62.0789C43.4552 62.0789 42.9392 61.2869 42.9392 59.9547V57.3386H41.7751V56.1985H42.9392L42.9389 54.4585H44.1989L44.1993 56.1985H46.2393V57.3386ZM50.5586 56.0545C50.8613 56.0557 51.1617 56.1085 51.4467 56.2106L51.0627 57.3866C50.8146 57.2879 50.5496 57.2389 50.2826 57.2426C49.4666 57.2426 49.0585 57.7706 49.0585 58.7186V61.9348H47.8105V56.1985H49.0466V56.8945C49.1997 56.6314 49.421 56.4145 49.6871 56.2667C49.9532 56.1188 50.2543 56.0455 50.5586 56.0545ZM59.199 61.0998C59.2766 61.0993 59.3535 61.1145 59.4251 61.1446C59.4939 61.1733 59.5565 61.2149 59.6098 61.267C59.6626 61.3191 59.7049 61.3809 59.7342 61.449C59.7643 61.5189 59.7798 61.5943 59.7798 61.6704C59.7798 61.7466 59.7643 61.8219 59.7342 61.8918C59.7047 61.9596 59.6625 62.0211 59.6098 62.073C59.5564 62.1252 59.4938 62.1669 59.4251 62.1961C59.3537 62.2267 59.2767 62.2422 59.199 62.2416C59.0847 62.2428 58.9726 62.2102 58.8766 62.148C58.7807 62.0858 58.7052 61.9967 58.6596 61.8918C58.6297 61.8219 58.6142 61.7465 58.6142 61.6704C58.6142 61.5943 58.6297 61.519 58.6596 61.449C58.6889 61.381 58.731 61.3192 58.7836 61.267C58.8367 61.2145 58.8997 61.1729 58.9689 61.1446C59.0419 61.1144 59.1201 61.0992 59.199 61.0998ZM59.199 62.1157C59.2582 62.1162 59.3169 62.1042 59.3712 62.0807C59.4234 62.0581 59.4708 62.0258 59.5111 61.9856C59.5626 61.9342 59.6008 61.8709 59.6222 61.8013C59.6435 61.7317 59.6475 61.6579 59.6337 61.5864C59.6199 61.5149 59.5887 61.4479 59.543 61.3912C59.4972 61.3346 59.4382 61.29 59.3712 61.2615C59.3168 61.2383 59.2582 61.2266 59.199 61.2271C59.1388 61.2267 59.0791 61.2384 59.0234 61.2615C58.9704 61.2834 58.9222 61.3154 58.8814 61.3558C58.7984 61.4396 58.7519 61.5527 58.7519 61.6707C58.7519 61.7886 58.7984 61.9018 58.8814 61.9856C58.9232 62.0271 58.9728 62.06 59.0273 62.0823C59.0818 62.1046 59.1401 62.116 59.199 62.1157ZM59.2326 61.4034C59.2888 61.3997 59.3446 61.4158 59.3901 61.449C59.4083 61.4639 59.4227 61.4829 59.4323 61.5044C59.4419 61.5259 59.4464 61.5493 59.4453 61.5728C59.446 61.5929 59.4424 61.613 59.4348 61.6316C59.4272 61.6503 59.4158 61.6671 59.4013 61.6811C59.3665 61.712 59.3224 61.7305 59.276 61.7336L59.4495 61.9337H59.3139L59.1529 61.735H59.1011V61.9337H58.9878V61.4034H59.2326ZM59.1011 61.5028V61.6442H59.2313C59.2563 61.6454 59.2811 61.6393 59.3027 61.6266C59.3115 61.6207 59.3185 61.6127 59.3232 61.6032C59.3278 61.5938 59.3299 61.5833 59.3292 61.5728C59.3298 61.5625 59.3276 61.5522 59.323 61.5429C59.3183 61.5337 59.3113 61.5259 59.3027 61.5202C59.2811 61.5076 59.2563 61.5016 59.2313 61.5028H59.1011Z" fill="black"/>
<path d="M44.4647 12.418H25.5364V46.4327H44.4647V12.418Z" fill="#7375CF"/>
<path d="M26.7382 29.4253C26.7353 26.1495 27.4776 22.9159 28.9091 19.9693C30.3405 17.0228 32.4236 14.4405 35.0005 12.418C31.8093 9.9096 27.9768 8.34969 23.9409 7.91652C19.9051 7.48334 15.8287 8.1944 12.1779 9.96841C8.52705 11.7424 5.44899 14.5078 3.2955 17.9485C1.14201 21.3891 0 25.3663 0 29.4253C0 33.4844 1.14201 37.4615 3.2955 40.9022C5.44899 44.3429 8.52705 47.1083 12.1779 48.8823C15.8287 50.6563 19.9051 51.3673 23.9409 50.9342C27.9768 50.501 31.8093 48.9411 35.0005 46.4327C32.4236 44.4102 30.3405 41.8279 28.9091 38.8814C27.4776 35.9348 26.7353 32.7012 26.7382 29.4253Z" fill="#EB001B"/>
<path d="M67.9363 42.8299V42.1335H68.2171V41.9916H67.502V42.1335H67.7829V42.8299H67.9363ZM69.3247 42.8299V41.9902H69.1054L68.8533 42.5678L68.6011 41.9902H68.3818V42.8299H68.5366V42.1965L68.773 42.7425H68.9335L69.17 42.1951V42.8299H69.3247Z" fill="#00A2E5"/>
<path d="M69.9999 29.4253C70.0001 33.4843 68.8582 37.4614 66.7048 40.9021C64.5515 44.3428 61.4735 47.1082 57.8227 48.8822C54.1719 50.6562 50.0957 51.3673 46.0599 50.9341C42.0241 50.501 38.1916 48.9411 35.0005 46.4327C37.5752 44.4081 39.6566 41.8254 41.0879 38.8794C42.5191 35.9333 43.2627 32.7007 43.2627 29.4253C43.2627 26.15 42.5191 22.9174 41.0879 19.9713C39.6566 17.0252 37.5752 14.4425 35.0005 12.418C38.1916 9.9096 42.0241 8.34968 46.0599 7.91651C50.0957 7.48335 54.1719 8.19441 57.8227 9.96844C61.4735 11.7425 64.5515 14.5079 66.7048 17.9485C68.8582 21.3892 70.0001 25.3663 69.9999 29.4253Z" fill="#00A2E5"/>
</svg>
