<svg width="70" height="70" viewBox="0 0 70 70" fill="none" xmlns="http://www.w3.org/2000/svg">
<path d="M12.7341 61.9342V58.3292C12.7552 58.026 12.7115 57.7218 12.6058 57.4368C12.5001 57.1519 12.3348 56.8927 12.121 56.6767C11.9073 56.4606 11.6499 56.2926 11.366 56.1839C11.0822 56.0752 10.7785 56.0282 10.4751 56.0462C10.078 56.0203 9.68123 56.1014 9.32616 56.281C8.9711 56.4607 8.67072 56.7323 8.45634 57.0675C8.26096 56.7423 7.98149 56.4758 7.64737 56.296C7.31324 56.1163 6.93682 56.03 6.55776 56.0462C6.22734 56.0296 5.8983 56.0995 5.60324 56.2492C5.30817 56.3988 5.05731 56.6229 4.87548 56.8993V56.1904H3.62573V61.9342H4.88744V58.7498C4.86015 58.5533 4.87674 58.3532 4.93598 58.1639C4.99522 57.9745 5.09565 57.8007 5.23006 57.6548C5.36448 57.5089 5.52953 57.3946 5.71338 57.32C5.89722 57.2455 6.0953 57.2126 6.29337 57.2238C7.12248 57.2238 7.54311 57.7645 7.54311 58.7378V61.9342H8.80482V58.7498C8.77959 58.5536 8.7976 58.3544 8.85759 58.166C8.91759 57.9775 9.01811 57.8045 9.1521 57.6591C9.28609 57.5137 9.45029 57.3993 9.63318 57.3241C9.81606 57.2489 10.0132 57.2147 10.2107 57.2238C11.0638 57.2238 11.4724 57.7645 11.4724 58.7378V61.9342H12.7341ZM31.4074 56.1904H29.3647V54.448H28.103V56.1904H26.9373V57.3319H28.103V59.9515C28.103 61.2852 28.6197 62.0784 30.0976 62.0784C30.6498 62.08 31.1912 61.9259 31.6597 61.6337L31.2993 60.5643C30.9642 60.7642 30.5838 60.8758 30.1938 60.8887C29.5689 60.8887 29.3647 60.5041 29.3647 59.9275V57.3319H31.4074V56.1904ZM42.0659 56.0462C41.7612 56.0372 41.4597 56.1106 41.1933 56.2586C40.9268 56.4066 40.7052 56.6239 40.5519 56.8873V56.1904H39.3141V61.9342H40.5638V58.7137C40.5638 57.7645 40.9724 57.2358 41.7896 57.2358C42.0569 57.2321 42.3222 57.2811 42.5706 57.38L42.9551 56.2023C42.6697 56.1002 42.369 56.0474 42.0659 56.0462ZM25.9521 56.647C25.2447 56.2263 24.4314 56.0178 23.6089 56.0462C22.1549 56.0462 21.2177 56.7431 21.2177 57.8846C21.2177 58.822 21.9146 59.3988 23.2002 59.579L23.7891 59.663C24.474 59.759 24.7985 59.9394 24.7985 60.2638C24.7985 60.7084 24.3418 60.9608 23.4887 60.9608C22.8024 60.9806 22.1295 60.7689 21.5781 60.3599L20.9893 61.3333C21.7172 61.8417 22.5891 62.1028 23.4767 62.0784C25.1349 62.0784 26.0962 61.2972 26.0962 60.2038C26.0962 59.1944 25.3392 58.6657 24.0895 58.4854L23.5008 58.4013C22.96 58.3292 22.5274 58.2212 22.5274 57.8367C22.5274 57.416 22.9359 57.1637 23.6209 57.1637C24.2498 57.1732 24.866 57.3427 25.4113 57.6563L25.9521 56.647ZM59.4294 56.0462C59.1247 56.0372 58.8232 56.1106 58.5568 56.2586C58.2903 56.4066 58.0687 56.6239 57.9154 56.8873V56.1904H56.6777V61.9342H57.9273V58.7137C57.9273 57.7645 58.3359 57.2358 59.153 57.2358C59.4203 57.2321 59.6858 57.2811 59.9342 57.38L60.3187 56.2023C60.0333 56.1002 59.7326 56.0474 59.4294 56.0462ZM43.3275 59.0621C43.3109 59.4668 43.3792 59.8704 43.528 60.2471C43.6768 60.6238 43.9027 60.9651 44.1913 61.2492C44.4799 61.5333 44.8248 61.7539 45.2038 61.8967C45.5828 62.0395 45.9875 62.1014 46.3918 62.0784C47.1421 62.1161 47.8793 61.8717 48.4585 61.3934L47.8578 60.384C47.4257 60.7133 46.8989 60.8945 46.3557 60.9007C45.8874 60.8723 45.4476 60.6662 45.126 60.3245C44.8045 59.9829 44.6254 59.5314 44.6254 59.0622C44.6254 58.593 44.8045 58.1416 45.126 57.7999C45.4476 57.4582 45.8874 57.2522 46.3557 57.2238C46.8989 57.2299 47.4257 57.4111 47.8578 57.7405L48.4585 56.7311C47.8793 56.2528 47.1421 56.0085 46.3918 56.0462C45.9875 56.0232 45.5829 56.0851 45.2039 56.2278C44.8249 56.3706 44.48 56.5911 44.1914 56.8752C43.9028 57.1593 43.6768 57.5006 43.528 57.8772C43.3793 58.2539 43.311 58.6575 43.3275 59.0621ZM55.0315 59.0621V56.1904H53.7818V56.8873C53.5685 56.6124 53.2924 56.3926 52.9767 56.2463C52.661 56.0999 52.3149 56.0313 51.9673 56.0462C51.1929 56.0841 50.4628 56.4185 49.9282 56.98C49.3936 57.5414 49.0954 58.287 49.0954 59.0623C49.0954 59.8376 49.3936 60.5831 49.9282 61.1446C50.4628 61.7061 51.1929 62.0404 51.9673 62.0784C52.3149 62.0932 52.6611 62.0246 52.9767 61.8782C53.2924 61.7319 53.5685 61.512 53.7818 61.2371V61.9342H55.0315V59.0621ZM50.3811 59.0621C50.4005 58.7232 50.5187 58.3973 50.721 58.1247C50.9234 57.8522 51.2011 57.6448 51.5199 57.5281C51.8388 57.4115 52.1848 57.3907 52.5153 57.4684C52.8458 57.546 53.1463 57.7187 53.3798 57.9651C53.6134 58.2115 53.7697 58.5209 53.8295 58.8551C53.8893 59.1893 53.85 59.5336 53.7164 59.8457C53.5829 60.1579 53.3609 60.4241 53.0778 60.6115C52.7948 60.799 52.4631 60.8995 52.1236 60.9007C51.8856 60.9039 51.6496 60.8578 51.4303 60.7653C51.2111 60.6727 51.0133 60.5358 50.8496 60.3631C50.6859 60.1903 50.5598 59.9856 50.4792 59.7617C50.3985 59.5378 50.3651 59.2996 50.3811 59.0621ZM35.3008 56.0462C34.5214 56.0872 33.7883 56.4284 33.2551 56.9983C32.7219 57.5682 32.4302 58.3224 32.4411 59.1027C32.452 59.8831 32.7646 60.6289 33.3135 61.1837C33.8623 61.7384 34.6047 62.0591 35.3849 62.0784C36.2422 62.1085 37.0806 61.8218 37.74 61.2732L37.1272 60.348C36.6527 60.7283 36.065 60.9397 35.4569 60.9488C35.044 60.9835 34.6337 60.8562 34.313 60.5938C33.9923 60.3313 33.7863 59.9544 33.7386 59.5428H38.0044C38.0164 59.3867 38.0284 59.2304 38.0284 59.0621C38.0165 57.2718 36.9109 56.0462 35.3008 56.0462ZM35.2767 57.1637C35.6541 57.1563 36.0191 57.2989 36.2917 57.5602C36.5642 57.8215 36.7221 58.1801 36.7307 58.5576H33.7506C33.7726 58.1719 33.9445 57.8102 34.2297 57.5497C34.5149 57.2892 34.8906 57.1507 35.2767 57.1637ZM66.6272 59.0621V53.8833H65.3774V56.8873C65.1641 56.6124 64.8881 56.3926 64.5724 56.2463C64.2568 56.0999 63.9107 56.0313 63.563 56.0462C62.7887 56.0841 62.0585 56.4184 61.5239 56.9799C60.9893 57.5414 60.6911 58.287 60.6911 59.0623C60.6911 59.8376 60.9893 60.5832 61.5239 61.1447C62.0585 61.7061 62.7887 62.0404 63.563 62.0784C63.9107 62.0932 64.2568 62.0246 64.5725 61.8782C64.8881 61.7319 65.1642 61.512 65.3774 61.2371V61.9342H66.6272V59.0621ZM68.7104 61.1017C68.788 61.1012 68.8649 61.1165 68.9364 61.1466C69.0052 61.1753 69.0679 61.2168 69.1212 61.269C69.174 61.321 69.2162 61.3828 69.2456 61.4509C69.2756 61.5208 69.2911 61.5962 69.2911 61.6723C69.2911 61.7485 69.2756 61.8238 69.2456 61.8938C69.216 61.9616 69.1738 62.0231 69.1212 62.075C69.0678 62.1271 69.0051 62.1689 68.9364 62.198C68.865 62.2286 68.788 62.2441 68.7104 62.2436C68.596 62.2447 68.4839 62.2122 68.388 62.15C68.2921 62.0877 68.2166 61.9987 68.171 61.8938C68.141 61.8238 68.1256 61.7485 68.1256 61.6723C68.1256 61.5962 68.141 61.5209 68.171 61.4509C68.2003 61.3829 68.2424 61.3211 68.2949 61.269C68.3481 61.2164 68.4111 61.1748 68.4803 61.1466C68.5532 61.1164 68.6314 61.1011 68.7104 61.1017ZM68.7104 62.1176C68.7696 62.1181 68.8283 62.1062 68.8826 62.0827C68.9348 62.06 68.9822 62.0277 69.0224 61.9875C69.1054 61.9037 69.1519 61.7905 69.1519 61.6726C69.1519 61.5547 69.1054 61.4415 69.0224 61.3577C68.9823 61.3176 68.9348 61.2856 68.8826 61.2634C68.8282 61.2403 68.7695 61.2286 68.7104 61.2291C68.6501 61.2286 68.5904 61.2403 68.5348 61.2634C68.4818 61.2852 68.4335 61.3173 68.3928 61.3577C68.3098 61.4415 68.2632 61.5547 68.2632 61.6726C68.2632 61.7905 68.3098 61.9037 68.3928 61.9875C68.4336 62.028 68.4818 62.0603 68.5348 62.0827C68.5903 62.1061 68.6501 62.118 68.7104 62.1176ZM68.744 61.4053C68.8002 61.4017 68.8559 61.4178 68.9015 61.4509C68.9196 61.4658 68.9341 61.4848 68.9436 61.5063C68.9532 61.5278 68.9577 61.5512 68.9567 61.5747C68.9573 61.5948 68.9537 61.6149 68.9461 61.6336C68.9385 61.6522 68.9271 61.6691 68.9126 61.6831C68.8778 61.714 68.8338 61.7324 68.7873 61.7356L68.9609 61.9357H68.8252L68.6643 61.737H68.6125V61.9357H68.4992V61.4053H68.744ZM68.6125 61.5048V61.6461H68.7426C68.7676 61.6473 68.7925 61.6412 68.814 61.6285C68.8228 61.6227 68.8298 61.6146 68.8345 61.6052C68.8391 61.5957 68.8412 61.5852 68.8405 61.5747C68.8411 61.5644 68.839 61.5541 68.8343 61.5449C68.8297 61.5357 68.8227 61.5278 68.814 61.5221C68.7924 61.5096 68.7676 61.5035 68.7426 61.5048H68.6125ZM61.9769 59.0621C61.9963 58.7232 62.1145 58.3974 62.3169 58.1248C62.5192 57.8523 62.797 57.6449 63.1158 57.5283C63.4346 57.4117 63.7806 57.3909 64.111 57.4686C64.4415 57.5462 64.742 57.7189 64.9756 57.9653C65.2091 58.2117 65.3654 58.5211 65.4251 58.8552C65.4849 59.1894 65.4456 59.5338 65.312 59.8459C65.1785 60.158 64.9565 60.4241 64.6734 60.6116C64.3904 60.799 64.0587 60.8995 63.7192 60.9007C63.4813 60.9039 63.2452 60.8578 63.026 60.7652C62.8068 60.6727 62.6091 60.5358 62.4454 60.363C62.2817 60.1903 62.1555 59.9855 62.0749 59.7616C61.9943 59.5377 61.9609 59.2996 61.9769 59.0621ZM19.7757 59.0621V56.1904H18.5259V56.8873C18.3126 56.6124 18.0366 56.3926 17.7209 56.2463C17.4052 56.0999 17.0591 56.0313 16.7115 56.0462C15.9371 56.0841 15.207 56.4185 14.6724 56.98C14.1378 57.5414 13.8396 58.287 13.8396 59.0623C13.8396 59.8376 14.1378 60.5831 14.6724 61.1446C15.207 61.7061 15.9371 62.0404 16.7115 62.0784C17.0591 62.0932 17.4052 62.0246 17.7209 61.8782C18.0366 61.7319 18.3126 61.512 18.5259 61.2371V61.9342H19.7757V59.0621ZM15.1254 59.0621C15.1448 58.7232 15.263 58.3974 15.4654 58.1248C15.6677 57.8523 15.9455 57.6449 16.2643 57.5283C16.5831 57.4117 16.9291 57.3909 17.2596 57.4686C17.59 57.5462 17.8905 57.7189 18.1241 57.9653C18.3576 58.2117 18.5139 58.5211 18.5736 58.8553C18.6334 59.1894 18.5941 59.5338 18.4605 59.8459C18.327 60.158 18.105 60.4242 17.8219 60.6116C17.5389 60.799 17.2072 60.8995 16.8677 60.9007C16.6298 60.9039 16.3937 60.8578 16.1745 60.7652C15.9552 60.6727 15.7575 60.5358 15.5939 60.363C15.4302 60.1903 15.304 59.9855 15.2234 59.7616C15.1428 59.5377 15.1094 59.2996 15.1254 59.0621Z" fill="#231F20"/>
<path d="M44.4649 12.417H25.5366V46.4316H44.4649V12.417Z" fill="#FF5F00"/>
<path d="M26.7382 29.4253C26.7352 26.1494 27.4775 22.9158 28.909 19.9693C30.3404 17.0227 32.4235 14.4405 35.0004 12.418C31.8092 9.9096 27.9767 8.34969 23.9408 7.91652C19.905 7.48334 15.8287 8.1944 12.1779 9.9684C8.52705 11.7424 5.44897 14.5078 3.29549 17.9484C1.14201 21.3891 0 25.3662 0 29.4253C0 33.4843 1.14201 37.4614 3.29549 40.9021C5.44897 44.3428 8.52705 47.1081 12.1779 48.8821C15.8287 50.6561 19.905 51.3672 23.9408 50.934C27.9767 50.5009 31.8092 48.9409 35.0004 46.4326C32.4235 44.4101 30.3404 41.8278 28.909 38.8813C27.4775 35.9347 26.7352 32.7011 26.7382 29.4253Z" fill="#EB001B"/>
<path d="M70.0001 29.4253C70.0002 33.4842 68.8584 37.4613 66.705 40.902C64.5516 44.3427 61.4737 47.1081 57.8229 48.8821C54.1721 50.6561 50.0959 51.3672 46.0601 50.934C42.0243 50.5008 38.1919 48.9409 35.0007 46.4326C37.5754 44.408 39.6569 41.8253 41.0881 38.8793C42.5193 35.9332 43.2629 32.7006 43.2629 29.4253C43.2629 26.1499 42.5193 22.9174 41.0881 19.9713C39.6569 17.0252 37.5754 14.4425 35.0007 12.418C38.1919 9.90959 42.0243 8.34968 46.0601 7.91651C50.0959 7.48335 54.1721 8.19441 57.8229 9.96843C61.4737 11.7425 64.5516 14.5078 66.705 17.9485C68.8584 21.3892 70.0002 25.3663 70.0001 29.4253Z" fill="#F79E1B"/>
<path d="M67.9363 42.8294V42.133H68.2171V41.9911H67.502V42.133H67.7829V42.8294H67.9363ZM69.3247 42.8294V41.9897H69.1054L68.8533 42.5673L68.6011 41.9897H68.3818V42.8294H68.5366V42.196L68.773 42.7421H68.9335L69.17 42.1947V42.8294H69.3247Z" fill="#F79E1B"/>
</svg>
