<svg width="24" height="24" viewBox="0 0 24 24" fill="none" xmlns="http://www.w3.org/2000/svg">
<path fill-rule="evenodd" clip-rule="evenodd" d="M23.4087 3.44629C24.1971 2.6579 24.1971 1.37968 23.4087 0.59129C22.6203 -0.197097 21.3421 -0.197097 20.5537 0.59129L12 9.145L3.44629 0.59129C2.6579 -0.197097 1.37968 -0.197097 0.59129 0.59129C-0.197097 1.37968 -0.197097 2.6579 0.59129 3.44629L9.145 12L0.59129 20.5537C-0.197097 21.3421 -0.197097 22.6203 0.59129 23.4087C1.37968 24.1971 2.6579 24.1971 3.44629 23.4087L12 14.855L20.5537 23.4087C21.3421 24.1971 22.6203 24.1971 23.4087 23.4087C24.1971 22.6203 24.1971 21.3421 23.4087 20.5537L14.855 12L23.4087 3.44629Z" fill="white" fill-opacity="0.3"/>
</svg>
