<svg width="211" height="47" viewBox="0 0 211 47" fill="none" xmlns="http://www.w3.org/2000/svg">
<path d="M102.652 14.1401C102.652 15.481 102.398 16.6217 101.889 17.5622C101.385 18.5028 100.696 19.2213 99.824 19.7176C98.9553 20.2099 97.9787 20.4561 96.894 20.4561C95.8011 20.4561 94.8205 20.2079 93.9521 19.7116C93.0835 19.2153 92.397 18.4968 91.8929 17.5563C91.3884 16.6157 91.1361 15.477 91.1361 14.1401C91.1361 12.7993 91.3884 11.6586 91.8929 10.718C92.397 9.77742 93.0835 9.061 93.9521 8.56868C94.8205 8.07237 95.8011 7.82422 96.894 7.82422C97.9787 7.82422 98.9553 8.07237 99.824 8.56868C100.696 9.061 101.385 9.77742 101.889 10.718C102.398 11.6586 102.652 12.7993 102.652 14.1401ZM100.016 14.1401C100.016 13.2716 99.8858 12.5391 99.6258 11.9428C99.3695 11.3464 99.0074 10.8941 98.539 10.5859C98.0707 10.2778 97.5222 10.1236 96.894 10.1236C96.2657 10.1236 95.7172 10.2778 95.2489 10.5859C94.7806 10.8941 94.4164 11.3464 94.156 11.9428C93.9001 12.5391 93.7719 13.2716 93.7719 14.1401C93.7719 15.0087 93.9001 15.7411 94.156 16.3375C94.4164 16.9339 94.7806 17.3861 95.2489 17.6943C95.7172 18.0025 96.2657 18.1566 96.894 18.1566C97.5222 18.1566 98.0707 18.0025 98.539 17.6943C99.0074 17.3861 99.3695 16.9339 99.6258 16.3375C99.8858 15.7411 100.016 15.0087 100.016 14.1401ZM105.076 7.99234H107.604V11.9548C107.604 12.4271 107.685 12.8073 107.85 13.0955C108.014 13.3797 108.268 13.5858 108.612 13.7139C108.96 13.838 109.407 13.9 109.951 13.9C110.143 13.9 110.369 13.894 110.63 13.882C110.89 13.866 111.158 13.8439 111.434 13.8159C111.714 13.7879 111.978 13.7539 112.227 13.7139C112.475 13.6739 112.681 13.6278 112.845 13.5758V15.6291C112.677 15.6851 112.467 15.7351 112.214 15.7792C111.966 15.8192 111.704 15.8552 111.428 15.8872C111.152 15.9152 110.884 15.9372 110.624 15.9533C110.363 15.9693 110.139 15.9773 109.951 15.9773C108.962 15.9773 108.102 15.8372 107.369 15.557C106.637 15.2728 106.07 14.8346 105.67 14.2422C105.274 13.6498 105.076 12.8874 105.076 11.9548V7.99234ZM112.395 7.99234H114.934V20.2879H112.395V7.99234ZM117.505 7.99234H120.099V15.7251H120.201L125.515 7.99234H127.79V20.2879H125.191V12.5491H125.1L119.757 20.2879H117.505V7.99234ZM140.787 12.297H138.157C138.109 11.9568 138.011 11.6546 137.863 11.3904C137.715 11.1223 137.525 10.8941 137.293 10.706C137.061 10.5179 136.793 10.3738 136.488 10.2737C136.188 10.1737 135.862 10.1236 135.51 10.1236C134.873 10.1236 134.319 10.2817 133.847 10.5979C133.374 10.9101 133.008 11.3664 132.748 11.9668C132.488 12.5632 132.358 13.2876 132.358 14.1401C132.358 15.0167 132.488 15.7531 132.748 16.3495C133.012 16.9459 133.38 17.3962 133.853 17.7003C134.325 18.0045 134.871 18.1566 135.492 18.1566C135.84 18.1566 136.162 18.1106 136.458 18.0186C136.758 17.9265 137.025 17.7924 137.257 17.6163C137.489 17.4362 137.681 17.218 137.833 16.9619C137.989 16.7057 138.097 16.4136 138.157 16.0853L140.787 16.0973C140.719 16.6617 140.549 17.206 140.277 17.7304C140.009 18.2507 139.646 18.717 139.19 19.1292C138.738 19.5375 138.198 19.8617 137.569 20.1018C136.945 20.338 136.238 20.4561 135.45 20.4561C134.353 20.4561 133.372 20.2079 132.508 19.7116C131.647 19.2153 130.967 18.4968 130.466 17.5563C129.97 16.6157 129.722 15.477 129.722 14.1401C129.722 12.7993 129.974 11.6586 130.478 10.718C130.983 9.77742 131.667 9.061 132.532 8.56868C133.396 8.07237 134.369 7.82422 135.45 7.82422C136.162 7.82422 136.823 7.92427 137.431 8.12441C138.043 8.32452 138.586 8.61673 139.058 9.00094C139.531 9.38117 139.915 9.84748 140.211 10.3998C140.511 10.9522 140.703 11.5846 140.787 12.297ZM142.183 10.1356V7.99234H152.282V10.1356H148.517V20.2879H145.947V10.1356H142.183ZM153.945 7.99234H156.538V15.7251H156.64L161.954 7.99234H164.229V20.2879H161.63V12.5491H161.54L156.196 20.2879H153.945V7.99234ZM165.909 10.1356V7.99234H176.008V10.1356H172.243V20.2879H169.673V10.1356H165.909ZM177.671 20.2879V7.99234H185.956V10.1356H180.27V13.0655H185.53V15.2088H180.27V18.1446H185.98V20.2879H177.671ZM187.357 20.2879V18.1986L187.705 18.1686C188.153 18.1326 188.515 17.9625 188.792 17.6583C189.068 17.3501 189.274 16.8598 189.41 16.1874C189.55 15.511 189.64 14.6024 189.68 13.4617L189.884 7.99234H198.23V20.2879H195.702V10.0756H192.298L192.106 14.3563C192.042 15.7331 191.877 16.8578 191.613 17.7304C191.353 18.6029 190.937 19.2473 190.365 19.6636C189.796 20.0798 189.018 20.2879 188.029 20.2879H187.357ZM202.084 12.5371H205.014C205.991 12.5371 206.831 12.6952 207.536 13.0114C208.244 13.3236 208.791 13.7659 209.175 14.3382C209.559 14.9106 209.749 15.585 209.745 16.3615C209.749 17.134 209.559 17.8164 209.175 18.4088C208.791 18.9971 208.244 19.4574 207.536 19.7896C206.831 20.1219 205.991 20.2879 205.014 20.2879H200.421V7.99234H203.015V18.1986H205.014C205.483 18.1986 205.877 18.1146 206.197 17.9465C206.517 17.7744 206.759 17.5482 206.923 17.2681C207.091 16.9839 207.174 16.6737 207.17 16.3375C207.174 15.8492 206.989 15.4369 206.617 15.1007C206.249 14.7605 205.715 14.5904 205.014 14.5904H202.084V12.5371Z" fill="#5D7F35"/>
<path d="M22.6054 21.3072V26.0988H10.4121V21.3072H22.6054ZM1.98855 28.2667H7.94025C8.04152 29.8869 8.54785 31.1067 9.45925 31.926C10.3706 32.7453 11.7193 33.1549 13.5053 33.1549C14.9598 33.1549 16.1152 32.8144 16.9714 32.1331C17.8275 31.4519 18.4443 30.4715 18.8218 29.1919C19.1992 27.9031 19.3879 26.3612 19.3879 24.5661V22.2738C19.3879 20.4235 19.1716 18.8631 18.7389 17.5927C18.3154 16.3131 17.6664 15.3465 16.7918 14.6929C15.9265 14.0393 14.8171 13.7125 13.4638 13.7125C12.129 13.7125 11.0703 13.915 10.2878 14.3201C9.50527 14.7251 8.93448 15.3051 8.57545 16.06C8.21644 16.8056 7.99547 17.7078 7.91262 18.7665H1.96094C2.14506 16.9069 2.67901 15.2315 3.56278 13.7401C4.45577 12.2396 5.7216 11.0521 7.36027 10.1775C9.00813 9.30299 11.0427 8.86572 13.4638 8.86572C15.8666 8.86572 17.9518 9.41346 19.7194 10.5089C21.4869 11.6044 22.854 13.1556 23.8206 15.1624C24.7872 17.1693 25.2706 19.5443 25.2706 22.2876V24.5799C25.2706 27.3232 24.7965 29.6936 23.8482 31.6913C22.9092 33.6797 21.5605 35.2171 19.8022 36.3032C18.0438 37.3805 15.9449 37.9188 13.5053 37.9188C11.1762 37.9188 9.17845 37.514 7.51216 36.7039C5.84587 35.8846 4.54322 34.7522 3.6042 33.3069C2.6652 31.8523 2.12664 30.1723 1.98855 28.2667ZM46.7954 37.5323L37.7092 25.4774H35.6655V37.5323H29.686V9.25234H35.6655V20.5478H36.8666L46.2567 9.25234H53.6999L42.6664 22.3705L54.2108 37.5323H46.7954ZM81.6114 23.3923C81.6114 26.4762 81.0268 29.0999 79.8578 31.2632C78.6976 33.4265 77.1141 35.0788 75.1073 36.2203C73.1095 37.3527 70.8633 37.9188 68.3684 37.9188C65.8554 37.9188 63.6 37.348 61.6022 36.2068C59.6045 35.0653 58.0257 33.4127 56.8656 31.2494C55.7057 29.086 55.1258 26.467 55.1258 23.3923C55.1258 20.3084 55.7057 17.6848 56.8656 15.5214C58.0257 13.3581 59.6045 11.7103 61.6022 10.578C63.6 9.43645 65.8554 8.86572 68.3684 8.86572C70.8633 8.86572 73.1095 9.43645 75.1073 10.578C77.1141 11.7103 78.6976 13.3581 79.8578 15.5214C81.0268 17.6848 81.6114 20.3084 81.6114 23.3923ZM75.5492 23.3923C75.5492 21.3947 75.25 19.71 74.6518 18.3384C74.0624 16.9667 73.2292 15.9265 72.1522 15.2177C71.0753 14.5088 69.814 14.1544 68.3684 14.1544C66.9232 14.1544 65.662 14.5088 64.585 15.2177C63.5077 15.9265 62.6701 16.9667 62.0716 18.3384C61.4825 19.71 61.1877 21.3947 61.1877 23.3923C61.1877 25.3899 61.4825 27.0746 62.0716 28.4463C62.6701 29.8179 63.5077 30.8581 64.585 31.567C65.662 32.2758 66.9232 32.6302 68.3684 32.6302C69.814 32.6302 71.0753 32.2758 72.1522 31.567C73.2292 30.8581 74.0624 29.8179 74.6518 28.4463C75.25 27.0746 75.5492 25.3899 75.5492 23.3923Z" fill="#5D7F35"/>
<path d="M207.957 24.0073H92.6507C91.9037 24.0073 91.2981 24.6129 91.2981 25.3598V37.5325C91.2981 38.2795 91.9037 38.885 92.6507 38.885H207.957C208.704 38.885 209.309 38.2795 209.309 37.5325V25.3598C209.309 24.6129 208.704 24.0073 207.957 24.0073Z" fill="url(#paint0_linear_26_175)"/>
<path d="M118.8 28.8641V29.5245H116.663V33.475H115.955V28.8641H118.8ZM120.543 32.4303L122.764 28.8641H123.581V33.475H122.873V29.9087L120.663 33.475H119.834V28.8641H120.543V32.4303ZM124.878 33.475V28.8641H128.505V33.475H127.796V29.5245H125.587V33.475H124.878ZM131.672 33.571C131.256 33.571 130.891 33.4719 130.576 33.2738C130.264 33.0757 130.02 32.7985 129.844 32.4423C129.67 32.0861 129.583 31.6698 129.583 31.1935C129.583 30.7132 129.67 30.294 129.844 29.9357C130.02 29.5775 130.264 29.2994 130.576 29.1012C130.891 28.9031 131.256 28.8041 131.672 28.8041C132.088 28.8041 132.452 28.9031 132.765 29.1012C133.079 29.2994 133.323 29.5775 133.497 29.9357C133.673 30.294 133.761 30.7132 133.761 31.1935C133.761 31.6698 133.673 32.0861 133.497 32.4423C133.323 32.7985 133.079 33.0757 132.765 33.2738C132.452 33.4719 132.088 33.571 131.672 33.571ZM131.672 32.9346C131.988 32.9346 132.248 32.8536 132.452 32.6915C132.657 32.5294 132.808 32.3162 132.906 32.0521C133.004 31.7879 133.053 31.5017 133.053 31.1935C133.053 30.8854 133.004 30.5982 132.906 30.332C132.808 30.0658 132.657 29.8507 132.452 29.6866C132.248 29.5225 131.988 29.4405 131.672 29.4405C131.356 29.4405 131.096 29.5225 130.892 29.6866C130.687 29.8507 130.536 30.0658 130.438 30.332C130.34 30.5982 130.291 30.8854 130.291 31.1935C130.291 31.5017 130.34 31.7879 130.438 32.0521C130.536 32.3162 130.687 32.5294 130.892 32.6915C131.096 32.8536 131.356 32.9346 131.672 32.9346ZM136.2 33.583C135.908 33.583 135.642 33.528 135.404 33.4179C135.166 33.3059 134.977 33.1447 134.837 32.9346C134.697 32.7225 134.627 32.4663 134.627 32.1662C134.627 31.902 134.679 31.6878 134.783 31.5237C134.887 31.3577 135.026 31.2276 135.2 31.1335C135.374 31.0394 135.566 30.9694 135.776 30.9234C135.988 30.8753 136.202 30.8373 136.416 30.8093C136.696 30.7733 136.923 30.7462 137.097 30.7283C137.273 30.7082 137.402 30.6752 137.482 30.6292C137.563 30.5832 137.605 30.5031 137.605 30.389V30.365C137.605 30.0688 137.524 29.8387 137.361 29.6746C137.201 29.5105 136.958 29.4285 136.632 29.4285C136.294 29.4285 136.029 29.5025 135.837 29.6506C135.644 29.7987 135.509 29.9568 135.431 30.1249L134.759 29.8847C134.879 29.6046 135.039 29.3864 135.239 29.2303C135.441 29.0722 135.661 28.9621 135.9 28.9001C136.14 28.8361 136.376 28.8041 136.608 28.8041C136.756 28.8041 136.926 28.8221 137.118 28.8581C137.312 28.8921 137.5 28.9632 137.68 29.0712C137.862 29.1793 138.013 29.3424 138.133 29.5605C138.253 29.7787 138.313 30.0708 138.313 30.4371V33.475H137.605V32.8506H137.569C137.521 32.9506 137.44 33.0577 137.328 33.1718C137.216 33.2858 137.067 33.3829 136.881 33.4629C136.695 33.543 136.468 33.583 136.2 33.583ZM136.308 32.9466C136.588 32.9466 136.824 32.8916 137.016 32.7815C137.21 32.6715 137.357 32.5294 137.455 32.3553C137.555 32.1812 137.605 31.998 137.605 31.8059V31.1575C137.575 31.1935 137.509 31.2266 137.407 31.2566C137.307 31.2846 137.19 31.3096 137.058 31.3316C136.928 31.3516 136.801 31.3697 136.677 31.3856C136.555 31.3997 136.456 31.4117 136.38 31.4217C136.196 31.4457 136.024 31.4847 135.863 31.5388C135.705 31.5908 135.577 31.6698 135.479 31.7759C135.383 31.88 135.335 32.022 135.335 32.2022C135.335 32.4483 135.426 32.6344 135.608 32.7605C135.792 32.8846 136.026 32.9466 136.308 32.9466ZM139.198 33.475V32.8145H139.366C139.504 32.8145 139.619 32.7875 139.711 32.7335C139.803 32.6775 139.877 32.5804 139.934 32.4423C139.991 32.3022 140.035 32.1081 140.065 31.8599C140.098 31.6098 140.121 31.2916 140.134 30.9054L140.219 28.8641H143.293V33.475H142.584V29.5245H140.891L140.819 31.1695C140.803 31.5477 140.769 31.881 140.717 32.1691C140.667 32.4553 140.59 32.6955 140.486 32.8896C140.384 33.0837 140.248 33.2298 140.078 33.3279C139.907 33.4259 139.694 33.475 139.438 33.475H139.198ZM144.184 33.475V32.8145H144.352C144.49 32.8145 144.605 32.7875 144.698 32.7335C144.79 32.6775 144.864 32.5804 144.92 32.4423C144.978 32.3022 145.022 32.1081 145.052 31.8599C145.084 31.6098 145.107 31.2916 145.121 30.9054L145.205 28.8641H148.279V33.475H147.57V29.5245H145.877L145.805 31.1695C145.789 31.5477 145.755 31.881 145.703 32.1691C145.653 32.4553 145.576 32.6955 145.472 32.8896C145.37 33.0837 145.234 33.2298 145.064 33.3279C144.894 33.4259 144.68 33.475 144.424 33.475H144.184ZM151.512 33.571C151.067 33.571 150.684 33.473 150.362 33.2768C150.042 33.0787 149.795 32.8025 149.621 32.4483C149.448 32.0921 149.363 31.6778 149.363 31.2056C149.363 30.7333 149.448 30.317 149.621 29.9568C149.795 29.5945 150.037 29.3124 150.347 29.1102C150.659 28.9061 151.024 28.8041 151.44 28.8041C151.68 28.8041 151.917 28.8441 152.151 28.9241C152.386 29.0042 152.599 29.1342 152.791 29.3144C152.983 29.4925 153.136 29.7286 153.25 30.0228C153.364 30.317 153.421 30.6792 153.421 31.1095V31.4097H149.867V30.7973H152.701C152.701 30.5371 152.649 30.305 152.544 30.1009C152.443 29.8967 152.296 29.7356 152.106 29.6176C151.918 29.4995 151.696 29.4405 151.44 29.4405C151.158 29.4405 150.914 29.5105 150.707 29.6506C150.503 29.7887 150.346 29.9688 150.236 30.1909C150.126 30.4131 150.071 30.6512 150.071 30.9054V31.3136C150.071 31.6618 150.131 31.957 150.251 32.1992C150.373 32.4393 150.542 32.6224 150.758 32.7485C150.975 32.8726 151.226 32.9346 151.512 32.9346C151.698 32.9346 151.866 32.9086 152.016 32.8566C152.168 32.8025 152.299 32.7225 152.41 32.6164C152.519 32.5083 152.605 32.3743 152.665 32.2142L153.349 32.4063C153.277 32.6384 153.156 32.8425 152.986 33.0187C152.816 33.1928 152.606 33.3288 152.355 33.4269C152.105 33.523 151.824 33.571 151.512 33.571ZM154.499 35.2041V28.8641H155.183V29.5965H155.268C155.319 29.5165 155.392 29.4144 155.484 29.2904C155.578 29.1643 155.712 29.0522 155.886 28.9542C156.062 28.8541 156.3 28.8041 156.6 28.8041C156.989 28.8041 157.331 28.9011 157.627 29.0952C157.923 29.2893 158.154 29.5645 158.32 29.9207C158.487 30.277 158.569 30.6972 158.569 31.1815C158.569 31.6698 158.487 32.0931 158.32 32.4513C158.154 32.8076 157.924 33.0837 157.63 33.2798C157.336 33.4739 156.996 33.571 156.612 33.571C156.316 33.571 156.079 33.522 155.901 33.4239C155.723 33.3238 155.586 33.2108 155.49 33.0847C155.393 32.9566 155.319 32.8506 155.268 32.7665H155.207V35.2041H154.499ZM155.196 31.1695C155.196 31.5177 155.246 31.8249 155.348 32.0911C155.45 32.3553 155.6 32.5624 155.796 32.7125C155.992 32.8606 156.232 32.9346 156.516 32.9346C156.813 32.9346 157.06 32.8566 157.258 32.7005C157.458 32.5424 157.608 32.3302 157.708 32.0641C157.81 31.7959 157.861 31.4977 157.861 31.1695C157.861 30.8453 157.811 30.5531 157.711 30.293C157.613 30.0308 157.464 29.8237 157.264 29.6716C157.065 29.5175 156.817 29.4405 156.516 29.4405C156.228 29.4405 155.986 29.5135 155.79 29.6596C155.594 29.8037 155.445 30.0058 155.345 30.266C155.245 30.5241 155.196 30.8253 155.196 31.1695ZM162.496 28.8641V29.5245H160.359V33.475H159.65V28.8641H162.496ZM165.224 33.571C164.78 33.571 164.397 33.473 164.074 33.2768C163.754 33.0787 163.507 32.8025 163.333 32.4483C163.161 32.0921 163.075 31.6778 163.075 31.2056C163.075 30.7333 163.161 30.317 163.333 29.9568C163.507 29.5945 163.749 29.3124 164.06 29.1102C164.372 28.9061 164.736 28.8041 165.152 28.8041C165.392 28.8041 165.63 28.8441 165.864 28.9241C166.098 29.0042 166.311 29.1342 166.503 29.3144C166.695 29.4925 166.848 29.7286 166.962 30.0228C167.076 30.317 167.133 30.6792 167.133 31.1095V31.4097H163.579V30.7973H166.413C166.413 30.5371 166.361 30.305 166.257 30.1009C166.155 29.8967 166.009 29.7356 165.819 29.6176C165.631 29.4995 165.408 29.4405 165.152 29.4405C164.87 29.4405 164.626 29.5105 164.42 29.6506C164.215 29.7887 164.059 29.9688 163.948 30.1909C163.838 30.4131 163.783 30.6512 163.783 30.9054V31.3136C163.783 31.6618 163.843 31.957 163.963 32.1992C164.086 32.4393 164.255 32.6224 164.471 32.7485C164.687 32.8726 164.938 32.9346 165.224 32.9346C165.41 32.9346 165.578 32.9086 165.729 32.8566C165.88 32.8025 166.012 32.7225 166.122 32.6164C166.232 32.5083 166.317 32.3743 166.377 32.2142L167.061 32.4063C166.989 32.6384 166.868 32.8425 166.698 33.0187C166.528 33.1928 166.318 33.3288 166.068 33.4269C165.818 33.523 165.536 33.571 165.224 33.571ZM171.297 30.8453V31.5057H168.752V30.8453H171.297ZM168.92 28.8641V33.475H168.211V28.8641H168.92ZM171.837 28.8641V33.475H171.129V28.8641H171.837ZM176.217 30.8453V31.5057H173.672V30.8453H176.217ZM173.84 28.8641V33.475H173.131V28.8641H173.84ZM176.758 28.8641V33.475H176.049V28.8641H176.758ZM178.664 30.5331H179.985C180.525 30.5331 180.939 30.6702 181.225 30.9444C181.511 31.2185 181.654 31.5658 181.654 31.986C181.654 32.2622 181.59 32.5133 181.462 32.7395C181.334 32.9636 181.145 33.1427 180.897 33.2768C180.649 33.4089 180.345 33.475 179.985 33.475H178.051V28.8641H178.76V32.8145H179.985C180.265 32.8145 180.495 32.7405 180.675 32.5924C180.855 32.4443 180.945 32.2542 180.945 32.022C180.945 31.7779 180.855 31.5788 180.675 31.4247C180.495 31.2706 180.265 31.1935 179.985 31.1935H178.664V30.5331ZM182.386 33.475V28.8641H183.095V33.475H182.386ZM185.1 32.4303L187.322 28.8641H188.138V33.475H187.43V29.9087L185.22 33.475H184.392V28.8641H185.1V32.4303ZM186.853 27.3271H187.514C187.514 27.6513 187.402 27.9165 187.178 28.1226C186.953 28.3288 186.649 28.4318 186.265 28.4318C185.887 28.4318 185.586 28.3288 185.361 28.1226C185.139 27.9165 185.028 27.6513 185.028 27.3271H185.688C185.688 27.4832 185.732 27.6203 185.818 27.7384C185.906 27.8565 186.055 27.9155 186.265 27.9155C186.475 27.9155 186.625 27.8565 186.715 27.7384C186.807 27.6203 186.853 27.4832 186.853 27.3271Z" fill="white"/>
<path d="M207.957 24.0073H92.6507C91.9037 24.0073 91.2981 24.6129 91.2981 25.3598V37.5325C91.2981 38.2795 91.9037 38.885 92.6507 38.885H207.957C208.704 38.885 209.309 38.2795 209.309 37.5325V25.3598C209.309 24.6129 208.704 24.0073 207.957 24.0073Z" stroke="url(#paint1_linear_26_175)" stroke-width="2"/>
<defs>
<linearGradient id="paint0_linear_26_175" x1="95.1745" y1="27.5577" x2="209.868" y2="36.3459" gradientUnits="userSpaceOnUse">
<stop stop-color="#4A6331"/>
<stop offset="1" stop-color="#385D4D"/>
</linearGradient>
<linearGradient id="paint1_linear_26_175" x1="150.304" y1="23.6692" x2="150.304" y2="39.2232" gradientUnits="userSpaceOnUse">
<stop stop-color="#748958"/>
<stop offset="1" stop-color="#A6B596"/>
</linearGradient>
</defs>
</svg>
