<svg width="30" height="30" viewBox="0 0 30 30" fill="none" xmlns="http://www.w3.org/2000/svg">
<path d="M25.6248 7.88339C25.624 7.64204 25.4914 7.40859 25.2841 7.28345L20.8325 4.669C20.523 4.48721 20.1413 4.48877 19.8205 4.64979C16.8142 6.15856 13.1911 6.15746 10.1857 4.6465C9.8685 4.48703 9.49147 4.48341 9.18336 4.65985L4.71551 7.21823C4.5082 7.34338 4.37566 7.57683 4.37488 7.81818C4.34964 15.0586 8.32187 21.9088 14.5937 25.5167C14.8406 25.6586 15.159 25.6586 15.4059 25.5167C21.6579 21.9202 25.6267 15.1009 25.6248 7.88339Z" stroke="white" stroke-miterlimit="10"/>
<path d="M13.4426 10.0502C13.3594 10.2512 13.3594 10.506 13.3594 11.0156V12.0569C13.3594 12.0816 13.3594 12.094 13.3517 12.1017C13.344 12.1094 13.3316 12.1094 13.3069 12.1094H12.2656C11.756 12.1094 11.5012 12.1094 11.3002 12.1926C11.0322 12.3036 10.8193 12.5166 10.7083 12.7846C10.625 12.9856 10.625 13.2404 10.625 13.75C10.625 14.2596 10.625 14.5144 10.7083 14.7154C10.8193 14.9834 11.0322 15.1964 11.3002 15.3074C11.5012 15.3906 11.756 15.3906 12.2656 15.3906H13.3069C13.3316 15.3906 13.344 15.3906 13.3517 15.3983C13.3594 15.406 13.3594 15.4184 13.3594 15.4431V16.4844C13.3594 16.994 13.3594 17.2488 13.4426 17.4498C13.5536 17.7178 13.7666 17.9307 14.0346 18.0417C14.2356 18.125 14.4904 18.125 15 18.125C15.5096 18.125 15.7644 18.125 15.9654 18.0417C16.2334 17.9307 16.4464 17.7178 16.5574 17.4498C16.6406 17.2488 16.6406 16.994 16.6406 16.4844V15.4431C16.6406 15.4184 16.6406 15.406 16.6483 15.3983C16.656 15.3906 16.6684 15.3906 16.6931 15.3906H17.7344C18.244 15.3906 18.4988 15.3906 18.6998 15.3074C18.9678 15.1964 19.1807 14.9834 19.2917 14.7154C19.375 14.5144 19.375 14.2596 19.375 13.75C19.375 13.2404 19.375 12.9856 19.2917 12.7846C19.1807 12.5166 18.9678 12.3036 18.6998 12.1926C18.4988 12.1094 18.244 12.1094 17.7344 12.1094H16.6931C16.6684 12.1094 16.656 12.1094 16.6483 12.1017C16.6406 12.094 16.6406 12.0816 16.6406 12.0569V11.0156C16.6406 10.506 16.6406 10.2512 16.5574 10.0502C16.4464 9.78219 16.2334 9.56927 15.9654 9.45826C15.7644 9.375 15.5096 9.375 15 9.375C14.4904 9.375 14.2356 9.375 14.0346 9.45826C13.7666 9.56927 13.5536 9.78219 13.4426 10.0502Z" stroke="white"/>
</svg>
