<svg width="31" height="31" viewBox="0 0 31 31" fill="none" xmlns="http://www.w3.org/2000/svg">
<path d="M7.31079 14.0747C6.73307 10.6641 7.16514 5.90392 10.682 4.15472C12.1861 3.47444 13.829 3.1574 15.4782 3.2292C20.4925 3.44751 25.4612 7.36376 22.6816 12.7314L22.5916 13.0017M12.2708 24.5417C12.8717 25.4079 13.2245 26.4217 13.2912 27.4738M20.0819 14.4021C19.9979 14.1242 19.9979 13.8276 20.0819 13.5496C20.1896 13.3078 20.3588 13.0984 20.5728 12.9425C20.7677 12.7974 20.9928 12.6977 21.2313 12.6508C21.4699 12.604 21.7159 12.6112 21.9513 12.6719C22.1867 12.7326 22.4055 12.8453 22.5916 13.0017M22.5916 13.0017C22.7778 13.158 22.9265 13.3541 23.0269 13.5755C23.1741 13.9183 23.2499 14.2874 23.2499 14.6605C23.2499 15.0335 23.1741 15.4027 23.0269 15.7455C22.8719 16.0555 22.6394 16.3009 22.4586 16.598C22.1615 17.0888 22.0582 17.683 21.7869 18.1996C21.7002 18.3934 21.5559 18.5558 21.3736 18.6646C21.218 18.7431 21.0402 18.7659 20.8699 18.7292M20.8699 18.7292C20.6474 18.6876 20.4447 18.574 20.293 18.406C20.1414 18.238 20.049 18.0248 20.0303 17.7992M20.8699 18.7292C20.8699 18.7292 20.7442 18.9492 20.7442 19.2846C20.7393 20.5007 21.17 21.6783 21.9583 22.6042" stroke="white" stroke-miterlimit="10" stroke-linecap="round"/>
<path d="M18.3934 14.0923C17.6786 15.0963 16.6086 15.8564 15.4132 16.1687M18.8713 19.0523C18.4844 19.6758 17.5542 20.6669 16.7431 20.6669M15.4132 16.1687C15.2122 15.9111 14.9054 15.7291 14.5054 15.6681C13.3042 15.3452 12.0513 15.526 10.8371 15.3452C9.68749 15.174 9.40332 14.2085 8.39582 14.2085C7.74999 14.2085 6.55189 14.6113 6.52295 14.9319C6.13888 17.9338 6.52563 23.3342 10.0621 24.5419C11.1609 24.9171 12.2924 24.5215 13.2913 24.0252C14.5209 23.485 16.7009 22.4035 16.7917 20.8348C16.7897 20.7763 16.7722 20.7202 16.7431 20.6669M15.4132 16.1687C15.6846 16.5167 15.7628 17.0028 15.6163 17.5152C15.4816 18.2125 15.0032 19.6443 15.8488 20.0469C16.0885 20.1667 16.5858 20.3786 16.7431 20.6669" stroke="white" stroke-miterlimit="10" stroke-linecap="round"/>
<path d="M6.93629 16.585C8.96916 17.6614 11.3234 17.9643 13.5625 17.4375" stroke="white" stroke-miterlimit="10" stroke-linecap="round"/>
<path d="M7.10425 18.729C9.13712 19.8055 11.4914 20.1084 13.7305 19.5815" stroke="white" stroke-miterlimit="10" stroke-linecap="round"/>
<path d="M7.58228 21.355C9.02073 22.1167 10.6866 22.331 12.271 21.9582" stroke="white" stroke-miterlimit="10" stroke-linecap="round"/>
</svg>
