<svg width="21" height="21" viewBox="0 0 21 21" fill="none" xmlns="http://www.w3.org/2000/svg">
<path fill-rule="evenodd" clip-rule="evenodd" d="M6.83554 2.1875H14.1645C16.9731 2.1875 19.25 4.51601 19.25 7.38828V8.03763L19.2502 8.05211L19.25 8.06659V12.705L19.2502 12.7195L19.25 12.734V13.6117C19.25 16.484 16.9731 18.8125 14.1645 18.8125H6.83554C4.02691 18.8125 1.75 16.484 1.75 13.6117V7.38828C1.75 4.51601 4.02691 2.1875 6.83554 2.1875ZM17.9781 7.38828V7.40176H15.1816L15.0214 7.40627C13.4839 7.49214 12.2629 8.79299 12.2629 10.3858C12.2639 12.0339 13.5698 13.3688 15.1812 13.3698H17.9781V13.6117C17.9781 15.7656 16.2706 17.5118 14.1645 17.5118H6.83554C4.72935 17.5118 3.02188 15.7656 3.02188 13.6117V7.38828C3.02188 5.23437 4.72935 3.4882 6.83554 3.4882H14.1645C16.2706 3.4882 17.9781 5.23437 17.9781 7.38828ZM15.182 8.70246H17.9781V12.0691H15.1816L15.0529 12.064C14.2038 11.9964 13.5353 11.271 13.5348 10.3854C13.5348 9.4565 14.2721 8.70303 15.182 8.70246ZM16.2058 10.3324C16.2058 9.9732 15.9211 9.68203 15.5699 9.68203H15.3056L15.2193 9.68797C14.9089 9.73103 14.6697 10.0031 14.6697 10.3324C14.6697 10.6916 14.9544 10.9827 15.3056 10.9827H15.5699L15.6562 10.9768C15.9666 10.9337 16.2058 10.6616 16.2058 10.3324ZM11.4456 6.77304C11.4456 6.41387 11.1609 6.12269 10.8096 6.12269H6.23177L6.14548 6.12863C5.83508 6.17169 5.59583 6.4438 5.59583 6.77304C5.59583 7.13222 5.88055 7.42339 6.23177 7.42339H10.8096L10.8959 7.41746C11.2063 7.37439 11.4456 7.10229 11.4456 6.77304Z" fill="white"/>
</svg>
