<svg width="28" height="28" viewBox="0 0 28 28" fill="none" xmlns="http://www.w3.org/2000/svg">
<path d="M9.40269 4.82965C9.35697 5.87574 9.70104 6.60598 10.5104 7.8072M9.40269 4.82965C11.578 2.1935 16.422 2.1935 18.5973 4.82965M9.40269 4.82965C6.06598 8.57962 9.31762 12.4023 11.699 15.4105M10.5104 7.8072C11.619 9.4525 12.7718 11.0771 14 12.6354M10.5104 7.8072C12.9451 6.10725 15.055 6.10725 17.4896 7.8072M18.5973 4.82965C18.643 5.87574 18.299 6.60598 17.4896 7.8072M18.5973 4.82965C21.934 8.57962 18.6824 12.4023 16.301 15.4105M17.4896 7.8072C16.381 9.4525 15.2282 11.0771 14 12.6354M14 12.6354C13.2487 13.5886 12.4817 14.5059 11.699 15.4105M11.699 15.4105C10.6307 16.6454 7.64945 20.0077 7.23466 20.4753C7.20517 20.5086 7.20279 20.5555 7.22645 20.5931C7.47673 20.9909 8.83484 23.1487 9.33334 23.9165C9.36698 23.9704 11.6376 21.2205 14 18.2892M14 18.2892C16.3624 21.2205 18.633 23.9704 18.6667 23.9165C19.0736 23.2898 20.5161 21.0017 20.7739 20.5925C20.7976 20.5549 20.7946 20.5084 20.7652 20.4751C20.3356 19.9901 17.1664 16.411 16.301 15.4105M14 18.2892C14.7829 17.3178 15.576 16.3264 16.301 15.4105" stroke="white" stroke-miterlimit="10"/>
</svg>
