<svg width="22" height="26" viewBox="0 0 22 26" fill="none" xmlns="http://www.w3.org/2000/svg">
<path fill-rule="evenodd" clip-rule="evenodd" d="M19.2687 3.96813C19.815 4.15938 20.18 4.67437 20.18 5.25312V13.7194C20.18 16.0856 19.32 18.3444 17.8012 20.0944C17.0375 20.9756 16.0713 21.6619 15.045 22.2169L10.5975 24.6194L6.1425 22.2156C5.115 21.6606 4.1475 20.9756 3.3825 20.0931C1.8625 18.3431 1 16.0831 1 13.7144V5.25312C1 4.67437 1.365 4.15938 1.91125 3.96813L10.1387 1.07688C10.4312 0.974375 10.75 0.974375 11.0412 1.07688L19.2687 3.96813Z" stroke="#3A511B" stroke-width="2" stroke-linecap="round" stroke-linejoin="round"/>
<path d="M7.34058 12.4604L9.70558 14.8266L14.5781 9.9541" stroke="#3A511B" stroke-width="2" stroke-linecap="round" stroke-linejoin="round"/>
</svg>
