<svg width="40" height="40" viewBox="0 0 40 40" fill="none" xmlns="http://www.w3.org/2000/svg">
<path d="M35.8333 20.0001C35.8333 29.2048 29.2047 35.8334 20 35.8334C10.7952 35.8334 4.16663 29.2048 4.16663 20.0001C4.16663 10.7953 10.7952 4.16675 20 4.16675C29.2047 4.16675 35.8333 10.7953 35.8333 20.0001Z" stroke="#72AF2D" stroke-width="2"/>
<path d="M22.5 20C22.5 21.3807 21.3807 22.5 20 22.5C18.6193 22.5 17.5 21.3807 17.5 20C17.5 18.6193 18.6193 17.5 20 17.5C21.3807 17.5 22.5 18.6193 22.5 20Z" stroke="#72AF2D" stroke-width="2"/>
<path d="M8.74225 12.8557C7.39725 14.9751 6.67805 17.4308 6.66676 19.9401C6.66663 19.9683 6.66657 19.9824 6.67537 19.9912C6.68416 20.0001 6.69832 20.0001 6.72663 20.0001L15.1423 20.0001C15.1705 20.0001 15.1846 20.0001 15.1934 19.9914C15.2021 19.9828 15.2023 19.9685 15.2026 19.9401C15.2138 19.0505 15.472 18.1811 15.9491 17.4294C16.4262 16.6776 17.1029 16.0737 17.9031 15.6849C17.9287 15.6725 17.9415 15.6662 17.9456 15.6546C17.9497 15.643 17.9437 15.6302 17.9317 15.6047L14.3484 7.99001C14.3364 7.9644 14.3304 7.95159 14.3186 7.94739C14.3069 7.9432 14.2941 7.94927 14.2686 7.96141C12.003 9.04003 10.0873 10.7363 8.74225 12.8557Z" stroke="#72AF2D" stroke-width="2"/>
<path d="M31.2576 12.8557C32.6026 14.9751 33.3218 17.4308 33.3331 19.9401C33.3332 19.9683 33.3333 19.9824 33.3245 19.9912C33.3157 20.0001 33.3016 20.0001 33.2733 20.0001L24.8576 20.0001C24.8294 20.0001 24.8153 20.0001 24.8065 19.9914C24.7978 19.9828 24.7976 19.9685 24.7972 19.9401C24.7861 19.0505 24.5278 18.1811 24.0507 17.4294C23.5736 16.6776 22.897 16.0737 22.0968 15.6849C22.0712 15.6725 22.0584 15.6662 22.0543 15.6546C22.0502 15.643 22.0562 15.6302 22.0682 15.6047L25.6514 7.99001C25.6635 7.9644 25.6695 7.95159 25.6813 7.94739C25.693 7.9432 25.7057 7.94927 25.7312 7.96141C27.9969 9.04003 29.9126 10.7363 31.2576 12.8557Z" stroke="#72AF2D" stroke-width="2"/>
<path d="M20.0414 33.3333C17.5312 33.3412 15.0703 32.6402 12.9414 31.3118C12.9175 31.2969 12.9055 31.2894 12.9027 31.2773C12.8999 31.2651 12.9075 31.2531 12.9226 31.2292L17.4098 24.1096C17.4248 24.0858 17.4324 24.0738 17.4444 24.071C17.4564 24.0682 17.4685 24.0757 17.4928 24.0906C18.2512 24.5554 19.1244 24.8005 20.0148 24.7977C20.9052 24.795 21.7769 24.5445 22.5325 24.0749C22.5566 24.0599 22.5687 24.0523 22.5807 24.0551C22.5927 24.0578 22.6003 24.0697 22.6155 24.0935L27.1469 31.185C27.1622 31.2088 27.1698 31.2208 27.1671 31.2329C27.1644 31.2451 27.1524 31.2526 27.1286 31.2677C25.008 32.6094 22.5515 33.3255 20.0414 33.3333Z" stroke="#72AF2D" stroke-width="2"/>
</svg>
