<svg width="40" height="40" viewBox="0 0 40 40" fill="none" xmlns="http://www.w3.org/2000/svg">
<path d="M28.3333 18.3333C28.3333 19.8787 28.5125 21.4242 28.7046 22.7205M11.6667 18.3333C11.6667 19.8787 11.4875 21.4242 11.2954 22.7205M28.7046 22.7205C28.9269 24.2201 29.1667 25.3863 29.1667 25.8333C29.1667 26.6196 25.4563 27.406 25.0382 27.4921C25.013 27.4973 24.9933 27.5134 24.9818 27.5364L24.1897 29.1205C24.1756 29.1488 24.1467 29.1666 24.1152 29.1666H15.8849C15.8533 29.1666 15.8244 29.1488 15.8103 29.1205L15.0182 27.5364C15.0067 27.5134 14.987 27.4973 14.9618 27.4921C14.5437 27.406 10.8333 26.6196 10.8333 25.8333C10.8333 25.3863 11.0731 24.2201 11.2954 22.7205M28.7046 22.7205L29.1667 21.6666C29.1667 21.6666 36.6667 5.83325 20 5.83325C3.33333 5.83325 10.8333 21.6666 10.8333 21.6666L11.2954 22.7205" stroke="#72AF2D" stroke-width="2" stroke-linecap="round"/>
<path d="M26.6667 30C25.8334 30 26.6667 30.8333 25 32.5C23.1591 34.3409 16.7678 34.2678 15 32.5C13.3334 30.8333 14.1667 30 13.3334 30" stroke="#72AF2D" stroke-width="2" stroke-linecap="round"/>
<path d="M15 19.9999C15 19.0794 15.7462 18.3333 16.6667 18.3333C21.2265 18.3333 15 24.6943 15 19.9999Z" stroke="#72AF2D" stroke-width="2"/>
<path d="M25.0027 19.9999C25.0027 19.0794 24.2565 18.3333 23.336 18.3333C18.7761 18.3333 25.0027 24.6943 25.0027 19.9999Z" stroke="#72AF2D" stroke-width="2"/>
<path d="M19.1666 24.9999L19.9552 23.4227C19.9737 23.3858 20.0263 23.3858 20.0447 23.4227L20.8333 24.9999" stroke="#72AF2D" stroke-width="2" stroke-linecap="round"/>
<path d="M18.5 27.5C18.5 26.9477 18.0523 26.5 17.5 26.5C16.9477 26.5 16.5 26.9477 16.5 27.5H18.5ZM16.5 27.5V28.3333H18.5V27.5H16.5Z" fill="#72AF2D"/>
<path d="M21 27.5C21 26.9477 20.5523 26.5 20 26.5C19.4477 26.5 19 26.9477 19 27.5H21ZM21 28.3333V27.5H19V28.3333H21Z" fill="#72AF2D"/>
<path d="M23.5 27.5C23.5 26.9477 23.0523 26.5 22.5 26.5C21.9477 26.5 21.5 26.9477 21.5 27.5H23.5ZM23.5 28.3333V27.5H21.5V28.3333H23.5Z" fill="#72AF2D"/>
</svg>
