<svg width="40" height="40" viewBox="0 0 40 40" fill="none" xmlns="http://www.w3.org/2000/svg">
<path d="M13.4323 6.89963C13.367 8.39405 13.8585 9.43726 15.0147 11.1533M13.4323 6.89963C16.5399 3.13371 23.4599 3.13372 26.5675 6.89963M13.4323 6.89963C8.66558 12.2567 13.3108 17.7177 16.7128 22.0152M15.0147 11.1533C16.5984 13.5037 18.2453 15.8246 19.9999 18.0506M15.0147 11.1533C18.4928 8.72479 21.507 8.72479 24.9851 11.1533M26.5675 6.89963C26.6328 8.39405 26.1413 9.43726 24.9851 11.1533M26.5675 6.89963C31.3342 12.2567 26.689 17.7177 23.287 22.0152M24.9851 11.1533C23.4014 13.5037 21.7545 15.8246 19.9999 18.0506M19.9999 18.0506C18.9266 19.4124 17.8309 20.7228 16.7128 22.0152M16.7128 22.0152C15.1678 23.8011 10.8219 28.7018 10.3148 29.2735C10.2853 29.3067 10.2812 29.3517 10.3048 29.3893C10.6072 29.87 12.6076 33.049 13.3332 34.1666C13.3813 34.2436 16.625 30.3151 19.9999 26.1276M19.9999 26.1276C23.3748 30.3151 26.6185 34.2436 26.6666 34.1666C27.2582 33.2554 29.3823 29.8855 29.6949 29.3895C29.7186 29.3518 29.7153 29.3078 29.6858 29.2745C29.1657 28.6873 24.539 23.4624 23.287 22.0152M19.9999 26.1276C21.1184 24.7398 22.2513 23.3235 23.287 22.0152" stroke="#72AF2D" stroke-width="2" stroke-miterlimit="10"/>
</svg>
