<svg width="40" height="40" viewBox="0 0 40 40" fill="none" xmlns="http://www.w3.org/2000/svg">
<path d="M34.1663 10.5111C34.1653 10.1893 33.9886 9.87804 33.7122 9.71118L27.6098 6.12725C27.3003 5.94546 26.9183 5.94615 26.5997 6.11162C22.5014 8.24034 17.5081 8.23921 13.4108 6.10824C13.0958 5.94442 12.7184 5.94167 12.4103 6.1181L6.28734 9.62423C6.01094 9.79109 5.83421 10.1024 5.83317 10.4242C5.79952 20.0781 11.0958 29.2117 19.4582 34.0221C19.7875 34.2114 20.212 34.2114 20.5413 34.0221C28.8772 29.2268 34.169 20.1345 34.1663 10.5111Z" stroke="#72AF2D" stroke-width="2" stroke-miterlimit="10"/>
<path d="M17.9236 13.4003C17.8126 13.6683 17.8126 14.008 17.8126 14.6875V16.0758C17.8126 16.1088 17.8126 16.1253 17.8023 16.1356C17.7921 16.1458 17.7756 16.1458 17.7426 16.1458H16.3542C15.6748 16.1458 15.335 16.1458 15.067 16.2568C14.7097 16.4049 14.4258 16.6888 14.2778 17.0461C14.1667 17.3141 14.1667 17.6538 14.1667 18.3333C14.1667 19.0128 14.1667 19.3526 14.2778 19.6206C14.4258 19.9779 14.7097 20.2618 15.067 20.4098C15.335 20.5208 15.6748 20.5208 16.3542 20.5208H17.7426C17.7756 20.5208 17.7921 20.5208 17.8023 20.5311C17.8126 20.5413 17.8126 20.5578 17.8126 20.5908V21.9792C17.8126 22.6587 17.8126 22.9984 17.9236 23.2664C18.0716 23.6237 18.3555 23.9076 18.7128 24.0557C18.9808 24.1667 19.3206 24.1667 20.0001 24.1667C20.6796 24.1667 21.0193 24.1667 21.2873 24.0557C21.6447 23.9076 21.9286 23.6237 22.0766 23.2664C22.1876 22.9984 22.1876 22.6587 22.1876 21.9792V20.5908C22.1876 20.5578 22.1876 20.5413 22.1978 20.5311C22.2081 20.5208 22.2246 20.5208 22.2576 20.5208H23.6459C24.3254 20.5208 24.6652 20.5208 24.9332 20.4098C25.2905 20.2618 25.5744 19.9779 25.7224 19.6206C25.8334 19.3526 25.8334 19.0128 25.8334 18.3333C25.8334 17.6538 25.8334 17.3141 25.7224 17.0461C25.5744 16.6888 25.2905 16.4049 24.9332 16.2568C24.6652 16.1458 24.3254 16.1458 23.6459 16.1458H22.2576C22.2246 16.1458 22.2081 16.1458 22.1978 16.1356C22.1876 16.1253 22.1876 16.1088 22.1876 16.0758V14.6875C22.1876 14.008 22.1876 13.6683 22.0766 13.4003C21.9286 13.0429 21.6447 12.759 21.2873 12.611C21.0193 12.5 20.6796 12.5 20.0001 12.5C19.3206 12.5 18.9808 12.5 18.7128 12.611C18.3555 12.759 18.0716 13.0429 17.9236 13.4003Z" stroke="#72AF2D" stroke-width="2"/>
</svg>
