<svg width="40" height="40" viewBox="0 0 40 40" fill="none" xmlns="http://www.w3.org/2000/svg">
<path d="M24.5643 10.3872C24.3303 9.34275 24.6447 8.1719 25.4937 7.32286C26.7767 6.03995 28.7943 5.9776 30.0003 7.18361C30.4613 7.64459 30.737 8.22415 30.83 8.83594C30.8634 9.05559 31.0399 9.23211 31.2596 9.2655C31.8714 9.35853 32.4509 9.6342 32.9119 10.0952C34.1179 11.3012 34.0556 13.3189 32.7727 14.6018C31.9236 15.4508 30.7528 15.7653 29.7084 15.5313C28.8102 15.33 27.7384 15.2687 27.0876 15.9195L21.7619 21.2452L21.2452 21.7618L15.9195 27.0875C15.2687 27.7384 15.33 28.8101 15.5313 29.7083C15.7653 30.7527 15.4508 31.9236 14.6018 32.7726C13.3189 34.0555 11.3012 34.1179 10.0952 32.9119C9.6342 32.4509 9.35853 31.8713 9.26551 31.2595C9.23211 31.0399 9.05559 30.8634 8.83594 30.83C8.22415 30.737 7.64459 30.4613 7.18361 30.0003C5.9776 28.7943 6.03995 26.7766 7.32286 25.4937C8.1719 24.6447 9.34275 24.3302 10.3872 24.5642C11.2854 24.7655 12.3571 24.8268 13.008 24.176L18.3336 18.8503L18.8503 18.3336L24.176 13.008C24.8269 12.3571 24.7655 11.2854 24.5643 10.3872Z" stroke="#72AF2D" stroke-width="2" stroke-linecap="square"/>
</svg>
