<svg width="40" height="40" viewBox="0 0 40 40" fill="none" xmlns="http://www.w3.org/2000/svg">
<path d="M8.07303 23.0112L21.0942 8.04844C23.2517 5.56933 27.0103 5.30855 29.4894 7.46598C31.9685 9.6234 32.2293 13.3821 30.0719 15.8612L28.1202 18.1038C27.1565 17.7144 26.1033 17.5 25 17.5C20.3976 17.5 16.6667 21.231 16.6667 25.8334M8.07303 23.0112C5.91561 25.4903 6.17639 29.249 8.6555 31.4064C11.7283 34.0804 15.4208 32.6969 17.776 29.9905C17.0704 28.7669 16.6667 27.3473 16.6667 25.8334M8.07303 23.0112L15.2347 14.7817C16.5445 17.0841 17.7107 18.6426 19.1887 19.8606C17.633 21.3746 16.6667 23.4911 16.6667 25.8334" stroke="#72AF2D" stroke-width="2"/>
<path d="M26.6006 9.14281C24.4532 8.58883 23.1511 10.0851 22.5001 10.8332" stroke="#72AF2D" stroke-width="2" stroke-linecap="round"/>
<path d="M33.3333 25.8333C33.3333 30.4357 29.6023 34.1667 25 34.1667C20.3976 34.1667 16.6666 30.4357 16.6666 25.8333C16.6666 21.231 20.3976 17.5 25 17.5C29.6023 17.5 33.3333 21.231 33.3333 25.8333Z" stroke="#72AF2D" stroke-width="2"/>
<path d="M19.3655 27.343L30.6346 24.3235" stroke="#72AF2D" stroke-width="2" stroke-linecap="round"/>
</svg>
