<svg width="19" height="19" viewBox="0 0 19 19" fill="none" xmlns="http://www.w3.org/2000/svg">
<path fill-rule="evenodd" clip-rule="evenodd" d="M18.5319 2.72831C19.156 2.10417 19.156 1.09224 18.5319 0.468104C17.9078 -0.156035 16.8958 -0.156035 16.2717 0.468104L9.5 7.23979L2.72831 0.468104C2.10417 -0.156035 1.09224 -0.156035 0.468104 0.468104C-0.156035 1.09224 -0.156035 2.10417 0.468104 2.72831L7.23979 9.5L0.468104 16.2717C-0.156035 16.8958 -0.156035 17.9078 0.468104 18.5319C1.09224 19.156 2.10417 19.156 2.72831 18.5319L9.5 11.7602L16.2717 18.5319C16.8958 19.156 17.9078 19.156 18.5319 18.5319C19.156 17.9078 19.156 16.8958 18.5319 16.2717L11.7602 9.5L18.5319 2.72831Z" fill="black" fill-opacity="0.7"/>
</svg>
