<svg width="50" height="50" viewBox="0 0 50 50" fill="none" xmlns="http://www.w3.org/2000/svg">
<path fill-rule="evenodd" clip-rule="evenodd" d="M16.6667 10.4167C16.6667 9.84137 17.1331 9.375 17.7084 9.375H19.7917C20.367 9.375 20.8334 9.84137 20.8334 10.4167C20.8334 10.992 20.367 11.4583 19.7917 11.4583H17.7084C17.1331 11.4583 16.6667 10.992 16.6667 10.4167Z" fill="#FF4D00"/>
<path fill-rule="evenodd" clip-rule="evenodd" d="M16.6667 14.5833C16.6667 14.008 17.1331 13.5417 17.7084 13.5417H19.7917C20.367 13.5417 20.8334 14.008 20.8334 14.5833C20.8334 15.1586 20.367 15.625 19.7917 15.625H17.7084C17.1331 15.625 16.6667 15.1586 16.6667 14.5833Z" fill="#FF4D00"/>
<path fill-rule="evenodd" clip-rule="evenodd" d="M16.6667 18.75C16.6667 18.1747 17.1331 17.7083 17.7084 17.7083H19.7917C20.367 17.7083 20.8334 18.1747 20.8334 18.75C20.8334 19.3253 20.367 19.7917 19.7917 19.7917H17.7084C17.1331 19.7917 16.6667 19.3253 16.6667 18.75Z" fill="#FF4D00"/>
<path fill-rule="evenodd" clip-rule="evenodd" d="M16.6667 22.9167C16.6667 22.3414 17.1331 21.875 17.7084 21.875H19.7917C20.367 21.875 20.8334 22.3414 20.8334 22.9167C20.8334 23.492 20.367 23.9583 19.7917 23.9583H17.7084C17.1331 23.9583 16.6667 23.492 16.6667 22.9167Z" fill="#FF4D00"/>
<path fill-rule="evenodd" clip-rule="evenodd" d="M24.9999 6.25001C23.274 6.25001 21.8749 7.64912 21.8749 9.375V27.6617L21.2968 27.949C18.5504 29.3139 16.6666 32.1462 16.6666 35.4167C16.6666 40.019 20.3975 43.75 24.9999 43.75C29.6023 43.75 33.3333 40.019 33.3333 35.4167C33.3333 32.1462 31.4495 29.3139 28.703 27.949L28.1249 27.6617V9.375C28.1249 7.64912 26.7258 6.25001 24.9999 6.25001ZM19.7916 9.375C19.7916 6.49852 22.1234 4.16667 24.9999 4.16667C27.8764 4.16667 30.2083 6.49852 30.2083 9.375V26.3938C33.32 28.1937 35.4166 31.5595 35.4166 35.4167C35.4166 41.1696 30.7529 45.8333 24.9999 45.8333C19.247 45.8333 14.5833 41.1696 14.5833 35.4167C14.5833 31.5595 16.6798 28.1937 19.7916 26.3938V9.375Z" fill="#FF4D00"/>
<path fill-rule="evenodd" clip-rule="evenodd" d="M24.9999 13.2292C25.7478 13.2292 26.3541 13.8355 26.3541 14.5834V29.3138C29.1549 29.9324 31.25 32.4299 31.25 35.4167C31.25 38.8685 28.4518 41.6667 25 41.6667C21.5482 41.6667 18.75 38.8685 18.75 35.4167C18.75 32.4299 20.8451 29.9325 23.6458 29.3138V14.5834C23.6458 13.8355 24.2521 13.2292 24.9999 13.2292ZM25 37.5C26.1506 37.5 27.0833 36.5673 27.0833 35.4167C27.0833 34.2661 26.1506 33.3333 25 33.3333C23.8494 33.3333 22.9167 34.2661 22.9167 35.4167C22.9167 36.5673 23.8494 37.5 25 37.5Z" fill="#FF4D00"/>
</svg>
